<svg width="128" height="128" viewBox="0 0 128 128" fill="none" xmlns="http://www.w3.org/2000/svg">
<g clip-path="url(#clip0_21070_51516)">
<path d="M0 27.5C0 12.3122 12.3122 0 27.5 0H128V100.5C128 115.688 115.688 128 100.5 128H27.5C12.3122 128 0 115.688 0 100.5V27.5Z" fill="#FE0027"/>
<path fill-rule="evenodd" clip-rule="evenodd" d="M0 85.0925V100.5C0 107.092 2.31918 113.142 6.18608 117.879L79.1609 44.1912L54.1628 19.4245H108.326V73.5872L96.9837 61.0882L87.0307 74.0502L119 106V9H22L57.6347 44.6542L0 85.0925ZM27.5 128H40.225L106.242 44.1912L86.3364 24.0538H65.736L84.0217 43.7283L9.75744 121.512C14.5465 125.56 20.7383 128 27.5 128Z" fill="white"/>
</g>
<defs>
<clipPath id="clip0_21070_51516">
<rect width="128" height="128" fill="white"/>
</clipPath>
</defs>
</svg>
