<svg width="128" height="128" viewBox="0 0 128 128" fill="none" xmlns="http://www.w3.org/2000/svg">
<rect width="128" height="128" rx="32" fill="#B750D1"/>
<path d="M64 23.052C64 19.1083 69.1035 17.5442 71.3131 20.8107L105.778 71.7588C107.575 74.4151 105.672 78 102.465 78H68C65.7909 78 64 76.2091 64 74V23.052Z" fill="white"/>
<path d="M58 39.4031C58 35.622 53.2386 33.9518 50.8765 36.9043L23.199 71.5012C21.1038 74.1203 22.9685 78 26.3225 78H54C56.2091 78 58 76.2091 58 74V39.4031Z" fill="white"/>
<path d="M20.6395 90.7954C18.1647 88.2625 19.9593 84 23.5005 84H105.487C109.164 84 110.893 88.5441 108.146 90.9884L98.1216 99.907C92.2626 105.12 84.6932 108 76.8507 108H50.9222C42.3065 108 34.0548 104.526 28.0337 98.3633L20.6395 90.7954Z" fill="white"/>
<rect x="50" y="72" width="8" height="16" fill="white"/>
<rect x="64" y="72" width="8" height="16" fill="white"/>
<circle cx="77.5027" cy="95.9999" r="3.50267" fill="#222222"/>
<circle cx="61.5028" cy="96" r="3.50279" fill="#222222"/>
<circle cx="45.5027" cy="96.0001" r="3.50274" fill="#222222"/>
</svg>
