<svg width="128" height="128" viewBox="0 0 128 128" fill="none" xmlns="http://www.w3.org/2000/svg">
<g clip-path="url(#clip0_6626_91325)">
<g clip-path="url(#clip1_6626_91325)">
<rect width="128" height="128" rx="32" fill="#FE4C4C"/>
</g>
<path d="M37.7568 84.9695C36.7589 83.9715 36.3587 82.538 36.7788 81.1907C37.2445 79.6968 37.9834 77.4924 39.046 74.7703L32.121 71.6226C29.7144 70.5287 26.9728 70.4313 24.4947 71.3518L23.2743 71.8051C22.3804 72.1371 21.498 72.0669 20.591 71.8678C17.8522 71.2667 16.564 68.109 18.1007 65.7636L24.3196 56.2716C26.8509 52.408 31.1236 50.0401 35.7415 49.9417L51.9356 49.9417C55.3206 45.0965 59.8902 39.8015 64.6003 35.0914C76.9048 22.7869 100.549 20.3743 104.087 23.9128C107.626 27.4513 105.213 51.0953 92.9086 63.3997C88.1985 68.1098 82.9035 72.6794 78.0582 76.0643L78.0582 92.2586C77.9598 96.8765 75.592 101.149 71.7284 103.68L62.2364 109.899C59.891 111.436 56.7333 110.148 56.1321 107.409C55.933 106.502 55.8629 105.62 56.1949 104.726L56.6482 103.505C57.5687 101.027 57.4713 98.2856 56.3774 95.879L53.2297 88.954C50.5076 90.0166 48.3032 90.7555 46.8093 91.2213C45.462 91.6413 44.0284 91.2412 43.0305 90.2432L37.7568 84.9695Z" fill="white"/>
<path d="M19.9086 108.091L34.9213 93.0787" stroke="#222222" stroke-width="4.4" stroke-linecap="round"/>
<path d="M83.3649 49.1396C85.8526 49.1396 87.8694 47.1229 87.8694 44.6351C87.8694 42.1473 85.8526 40.1306 83.3649 40.1306C80.8771 40.1306 78.8604 42.1473 78.8604 44.6351C78.8604 47.1229 80.8771 49.1396 83.3649 49.1396Z" fill="#222222"/>
<path d="M71.7675 60.772C74.254 60.772 76.2698 58.7562 76.2698 56.2697C76.2698 53.7831 74.254 51.7674 71.7675 51.7674C69.2809 51.7674 67.2651 53.7831 67.2651 56.2697C67.2651 58.7562 69.2809 60.772 71.7675 60.772Z" fill="#222222"/>
</g>
<defs>
<clipPath id="clip0_6626_91325">
<rect width="128" height="128" fill="white"/>
</clipPath>
<clipPath id="clip1_6626_91325">
<rect width="128" height="128" fill="white"/>
</clipPath>
</defs>
</svg>
