<svg width="128" height="128" viewBox="0 0 128 128" fill="none" xmlns="http://www.w3.org/2000/svg">
<rect width="128" height="128" rx="32" fill="#4E7BF9"/>
<path fill-rule="evenodd" clip-rule="evenodd" d="M74.4519 24.261C72.4227 21.6414 68.6539 21.1628 66.0343 23.1921L39.1604 44.0095C36.5408 46.0388 36.0622 49.8075 38.0915 52.4272L38.7357 53.2589C40.3947 55.4005 43.2163 56.1112 45.6221 55.1904L53.1499 64.9082L23.8185 87.6294C21.1988 89.6587 20.7202 93.4274 22.7495 96.0471L26.2598 100.579C28.2891 103.198 32.0578 103.677 34.6775 101.648L64.0089 78.9263L72.537 89.9355C71.3989 91.9727 71.5125 94.578 73.0317 96.5392L73.5097 97.1562C75.539 99.7759 79.3077 100.254 81.9274 98.2252L107.839 78.1527C110.459 76.1234 110.938 72.3547 108.908 69.735L108.43 69.118C106.911 67.1568 104.417 66.3956 102.16 66.9884L75.2451 32.2434C76.738 30.144 76.7552 27.2344 75.0962 25.0927L74.4519 24.261Z" fill="white"/>
<path d="M51.6123 51.8041L70.9288 36.7802M78.1044 84.9454L97.4208 69.9215" stroke="#222222" stroke-width="4.4" stroke-linecap="round" stroke-linejoin="round"/>
</svg>
