<svg width="128" height="128" viewBox="0 0 128 128" fill="none" xmlns="http://www.w3.org/2000/svg">
<rect width="128" height="128" rx="32" fill="#51ADFF"/>
<path fill-rule="evenodd" clip-rule="evenodd" d="M32 34C25.3726 34 20 39.3726 20 46V82C20 88.6274 25.3726 94 32 94H72C78.6274 94 84 88.6274 84 82V80.2261C84 79.8125 84.4736 79.5777 84.8028 79.8282L100.367 91.6704C104.317 94.6759 110 91.8589 110 86.8955V41.1045C110 36.1411 104.317 33.3241 100.367 36.3296L84.8028 48.1718C84.4736 48.4223 84 48.1875 84 47.7739V46C84 39.3726 78.6274 34 72 34H32Z" fill="white"/>
<path d="M56.9531 57.787C56.4558 56.8616 56.1456 55.8473 56.0403 54.8021C55.935 53.7568 56.0366 52.701 56.3393 51.695C56.642 50.6889 57.1399 49.7524 57.8045 48.9388C58.4692 48.1252 59.2875 47.4505 60.213 46.9531C61.1384 46.4558 62.1527 46.1456 63.1979 46.0403C64.2432 45.935 65.299 46.0366 66.305 46.3393C67.3111 46.642 68.2476 47.1399 69.0612 47.8045C69.8748 48.4692 70.5495 49.2876 71.0469 50.213" stroke="#222222" stroke-width="4.4" stroke-linecap="round" stroke-linejoin="round"/>
</svg>
