<svg width="128" height="128" viewBox="0 0 128 128" fill="none" xmlns="http://www.w3.org/2000/svg">
<rect width="128" height="128" rx="32" fill="#4E7BF9"/>
<path fill-rule="evenodd" clip-rule="evenodd" d="M54.4805 92.0002H30C25.5817 92.0002 22 88.4185 22 84.0002V44.0002C22 39.5819 25.5817 36.0002 30 36.0002H54.4795L91.9171 18.6679C96.6225 16.4896 102 19.9258 102 25.111V102.889C102 108.074 96.6225 111.51 91.9171 109.332L54.4805 92.0002Z" fill="white"/>
<path d="M36 50H48M60 50H48M48 50V79" stroke="#222222" stroke-width="4.4" stroke-linecap="round"/>
<path d="M73.4466 55.8696C75.1775 56.4006 76.6939 57.4702 77.7748 58.9227C78.8558 60.3751 79.445 62.1347 79.4567 63.9453C79.4684 65.7558 78.9019 67.5228 77.8398 68.9891C76.7776 70.4554 75.2752 71.5445 73.5512 72.0978" stroke="#222222" stroke-width="4.4" stroke-linecap="round" stroke-linejoin="round"/>
<path d="M76.3738 45.0428C80.3418 46.3769 83.7912 48.9226 86.2358 52.321C88.6804 55.7193 89.997 59.7992 90 63.9855C90.003 68.1718 88.6924 72.2535 86.2527 75.6554C83.8131 79.0574 80.3674 81.608 76.4013 82.9479" stroke="#222222" stroke-width="4.4" stroke-linecap="round" stroke-linejoin="round"/>
</svg>
