<svg width="128" height="128" viewBox="0 0 128 128" fill="none" xmlns="http://www.w3.org/2000/svg">
<g clip-path="url(#clip0_3047_16532)">
<g clip-path="url(#clip1_3047_16532)">
<g clip-path="url(#clip2_3047_16532)">
<g clip-path="url(#clip3_3047_16532)">
<rect width="128" height="128" rx="32" fill="#FE4C4C"/>
</g>
<path fill-rule="evenodd" clip-rule="evenodd" d="M21.5717 50.3025C19.7373 49.3886 19.3391 46.9452 20.7882 45.496L26.892 39.3923C27.5744 38.7098 28.5435 38.3974 29.4961 38.5527L66.889 44.6501L77.2375 34.3015C86.6101 24.929 98.0071 21.13 102.693 25.8163C107.38 30.5026 103.581 41.8995 94.2081 51.2721L83.5139 61.9662L88.7364 100.324C88.8628 101.253 88.5479 102.187 87.8851 102.85L83.0136 107.721C81.5645 109.171 79.1211 108.772 78.2071 106.938L65.0167 80.4635L57.2049 88.2753L59.1813 99.2256C59.2977 99.8706 59.0907 100.532 58.6273 100.995L52.3554 107.267C51.3828 108.24 49.7414 107.963 49.1415 106.725L40.5137 88.9235C40.3176 88.5188 39.9908 88.1921 39.5862 87.996L21.7847 79.3682C20.5469 78.7683 20.2701 77.1269 21.2427 76.1542L27.5146 69.8824C27.978 69.419 28.6391 69.212 29.284 69.3284L40.2343 71.3048L48.0462 63.4929L21.5717 50.3025Z" fill="white"/>
<circle cx="3.5" cy="3.5" r="3.5" transform="matrix(0.707107 0.707107 0.707107 -0.707107 59.8875 68.4303)" fill="#222222"/>
<circle cx="3.5" cy="3.5" r="3.5" transform="matrix(0.707107 0.707107 0.707107 -0.707107 68.6571 59.662)" fill="#222222"/>
<circle cx="3.5" cy="3.5" r="3.5" transform="matrix(0.707107 0.707107 0.707107 -0.707107 77.1416 51.1761)" fill="#222222"/>
</g>
</g>
</g>
<defs>
<clipPath id="clip0_3047_16532">
<rect width="128" height="128" fill="white"/>
</clipPath>
<clipPath id="clip1_3047_16532">
<rect width="128" height="128" fill="white"/>
</clipPath>
<clipPath id="clip2_3047_16532">
<rect width="128" height="128" fill="white"/>
</clipPath>
<clipPath id="clip3_3047_16532">
<rect width="128" height="128" fill="white"/>
</clipPath>
</defs>
</svg>
