<svg width="128" height="128" viewBox="0 0 128 128" fill="none" xmlns="http://www.w3.org/2000/svg">
<g clip-path="url(#clip0_13713_129750)">
<g clip-path="url(#clip1_13713_129750)">
<rect width="128" height="128" rx="32" fill="#51ADFF"/>
</g>
<path fill-rule="evenodd" clip-rule="evenodd" d="M59 22C44.0751 22 31.7836 33.2745 30.1777 47.7712C19.5588 51.7497 12 61.9921 12 74C12 89.464 24.536 102 40 102H84C101.673 102 116 87.6731 116 70C116 52.6402 102.177 38.5091 84.9368 38.0135C80.1729 28.5175 70.3476 22 59 22Z" fill="white"/>
<path d="M53.9181 44.6539L51.9336 45.3405L51.9336 45.3405L53.9181 44.6539ZM59.2275 60V62.1C59.9067 62.1 60.544 61.7715 60.938 61.2182C61.332 60.665 61.4341 59.9553 61.2121 59.3134L59.2275 60ZM48.9275 60L47.2207 61.2235C47.6151 61.7737 48.2506 62.1 48.9275 62.1V60ZM45.104 54.666L43.3972 55.8894L43.3972 55.8894L45.104 54.666ZM38.0499 56.0729L40.0537 55.4446L40.0537 55.4446L38.0499 56.0729ZM41.3494 66.5963L39.3456 67.2245L39.3456 67.2245L41.3494 66.5963ZM41.3478 67.5561L39.3461 66.9211L39.3461 66.9211L41.3478 67.5561ZM38.0592 77.922L40.0609 78.557L40.0609 78.557L38.0592 77.922ZM45.1044 79.3412L46.8044 80.5742L46.8044 80.5742L45.1044 79.3412ZM48.9784 74V71.9C48.3056 71.9 47.6735 72.2224 47.2784 72.767L48.9784 74ZM59.2275 74L61.2121 74.6866C61.4341 74.0447 61.332 73.335 60.938 72.7818C60.544 72.2285 59.9067 71.9 59.2275 71.9L59.2275 74ZM53.9181 89.3461L51.9336 88.6595L51.9336 88.6595L53.9181 89.3461ZM62.0996 91.1897L60.4115 89.9405L60.4115 89.9405L62.0996 91.1897ZM74.8199 74V71.9C74.1542 71.9 73.5279 72.2157 73.1319 72.7508L74.8199 74ZM74.8199 60L73.1319 61.2492C73.5279 61.7843 74.1542 62.1 74.8199 62.1V60ZM62.0996 42.8103L60.4115 44.0595L60.4115 44.0595L62.0996 42.8103ZM55.9027 43.9673C55.905 43.974 55.9087 43.9939 55.905 44.0176C55.9019 44.0373 55.8953 44.0502 55.8897 44.058C55.8841 44.0659 55.8741 44.0763 55.8565 44.0857C55.8353 44.097 55.8153 44.1 55.8082 44.1V39.9C52.9901 39.9 51.0122 42.6774 51.9336 45.3405L55.9027 43.9673ZM61.2121 59.3134L55.9027 43.9673L51.9336 45.3405L57.2429 60.6866L61.2121 59.3134ZM48.9275 62.1H59.2275V57.9H48.9275V62.1ZM43.3972 55.8894L47.2207 61.2235L50.6343 58.7765L46.8108 53.4425L43.3972 55.8894ZM43.8072 56.1C43.6446 56.1 43.492 56.0216 43.3972 55.8894L46.8108 53.4425C46.1168 52.4743 44.9985 51.9 43.8072 51.9V56.1ZM39.5724 56.1H43.8072V51.9H39.5724V56.1ZM40.0537 55.4446C40.1556 55.7695 39.9129 56.1 39.5724 56.1V51.9C37.0777 51.9 35.2998 54.3208 36.0461 56.7012L40.0537 55.4446ZM43.3532 65.968L40.0537 55.4446L36.0461 56.7012L39.3456 67.2245L43.3532 65.968ZM43.3495 68.1911C43.5789 67.468 43.5802 66.6919 43.3532 65.968L39.3456 67.2245C39.3146 67.1257 39.3148 67.0198 39.3461 66.9211L43.3495 68.1911ZM40.0609 78.557L43.3495 68.1911L39.3461 66.9211L36.0575 77.2869L40.0609 78.557ZM39.5801 77.9C39.9213 77.9 40.1641 78.2317 40.0609 78.557L36.0575 77.2869C35.3016 79.6698 37.0802 82.1 39.5801 82.1V77.9ZM43.8129 77.9H39.5801V82.1H43.8129L43.8129 77.9ZM43.4045 78.1083C43.4994 77.9774 43.6512 77.9 43.8129 77.9L43.8129 82.1C44.9969 82.1 46.1092 81.5327 46.8044 80.5742L43.4045 78.1083ZM47.2784 72.767L43.4045 78.1083L46.8044 80.5742L50.6783 75.233L47.2784 72.767ZM59.2275 71.9H48.9784V76.1H59.2275L59.2275 71.9ZM55.9027 90.0327L61.2121 74.6866L57.2429 73.3134L51.9336 88.6595L55.9027 90.0327ZM55.8082 89.9C55.8153 89.9 55.8353 89.903 55.8565 89.9143C55.8741 89.9237 55.8841 89.9341 55.8897 89.942C55.8953 89.9498 55.9019 89.9627 55.905 89.9824C55.9087 90.0061 55.905 90.026 55.9027 90.0327L51.9336 88.6595C51.0122 91.3226 52.9901 94.1 55.8082 94.1V89.9ZM60.4919 89.9H55.8082V94.1H60.4919V89.9ZM60.4115 89.9405C60.4304 89.915 60.4602 89.9 60.4919 89.9V94.1C61.7917 94.1 63.0145 93.4837 63.7876 92.4389L60.4115 89.9405ZM73.1319 72.7508L60.4115 89.9405L63.7876 92.4389L76.508 75.2492L73.1319 72.7508ZM81.9999 71.9H74.8199V76.1H81.9999V71.9ZM93.8999 67C93.8999 67.7091 93.2706 68.9163 90.9603 70.0715C88.7756 71.1638 85.6106 71.9 81.9999 71.9V76.1C86.1213 76.1 89.9562 75.2692 92.8386 73.828C95.5953 72.4497 98.0999 70.1569 98.0999 67H93.8999ZM81.9999 62.1C85.6106 62.1 88.7756 62.8362 90.9603 63.9285C93.2706 65.0837 93.8999 66.2909 93.8999 67H98.0999C98.0999 63.8431 95.5953 61.5503 92.8386 60.172C89.9562 58.7308 86.1213 57.9 81.9999 57.9V62.1ZM74.8199 62.1H81.9999V57.9H74.8199V62.1ZM60.4115 44.0595L73.1319 61.2492L76.508 58.7508L63.7876 41.5611L60.4115 44.0595ZM60.4919 44.1C60.4602 44.1 60.4304 44.085 60.4115 44.0595L63.7876 41.5611C63.0145 40.5163 61.7917 39.9 60.4919 39.9V44.1ZM55.8082 44.1H60.4919V39.9H55.8082V44.1Z" fill="#222222"/>
</g>
<defs>
<clipPath id="clip0_13713_129750">
<rect width="128" height="128" fill="white"/>
</clipPath>
<clipPath id="clip1_13713_129750">
<rect width="128" height="128" fill="white"/>
</clipPath>
</defs>
</svg>
