<svg width="128" height="128" viewBox="0 0 128 128" fill="none" xmlns="http://www.w3.org/2000/svg">
<rect width="128" height="128" rx="32" fill="#4E7BF9"/>
<path d="M35 26C31.7704 26 28.8575 27.9419 27.6154 30.9231L18.9231 51.7846C18.3137 53.2471 18 54.8157 18 56.4V62C18 66.1006 20.4682 69.6248 24 71.1679V96C24 100.418 27.5817 104 32 104H96C100.418 104 104 100.418 104 96V71.1679C107.532 69.6248 110 66.1006 110 62V56.4C110 54.8157 109.686 53.2471 109.077 51.7846L100.385 30.9231C99.1425 27.9419 96.2296 26 93 26H35Z" fill="white"/>
<path d="M98 66H96.2857C90.6051 66 87 62 86 58L82 38" stroke="#222222" stroke-width="4.4" stroke-linecap="round" stroke-linejoin="round"/>
<path d="M86 58C86 62.4183 81.0751 66 75 66C68.9249 66 64 62.4183 64 58" stroke="#222222" stroke-width="4.4" stroke-linecap="round" stroke-linejoin="round"/>
<path d="M64 38L64 58" stroke="#222222" stroke-width="4.4" stroke-linecap="round" stroke-linejoin="round"/>
<path d="M64 58C64 62.4183 59.0751 66 53 66C46.9249 66 42 62.4183 42 58" stroke="#222222" stroke-width="4.4" stroke-linecap="round" stroke-linejoin="round"/>
<path d="M30 66H31.7143C37.3949 66 41 62 42 58L46 38" stroke="#222222" stroke-width="4.4" stroke-linecap="round" stroke-linejoin="round"/>
</svg>
