<svg width="128" height="128" viewBox="0 0 128 128" fill="none" xmlns="http://www.w3.org/2000/svg">
<g clip-path="url(#clip0_9359_106287)">
<g clip-path="url(#clip1_9359_106287)">
<rect width="128" height="128" rx="32" fill="#FE4C4C"/>
</g>
<path d="M34 64.2843V88C34 91.3137 36.6863 94 40 94H63.7157C69.0201 94 74.1071 91.8929 77.8579 88.1421L83.4393 82.5607C84.3843 81.6157 83.715 80 82.3787 80H73C71.3431 80 70 78.6569 70 77C70 75.3431 71.3431 74 73 74H91.3787C91.7765 74 92.158 73.842 92.4393 73.5607L97.4393 68.5607C98.3843 67.6157 97.715 66 96.3787 66H85C83.3431 66 82 64.6569 82 63C82 61.3431 83.3431 60 85 60H103.238C103.826 60 104.365 59.6583 104.582 59.112C105.51 56.7807 106 54.2735 106 51.7157V32C106 26.4772 101.523 22 96 22H76.2843C70.9799 22 65.8929 24.1071 62.1421 27.8579L39.8579 50.1421C36.1071 53.8929 34 58.9799 34 64.2843Z" fill="white"/>
<path d="M24 104L82 46" stroke="#222222" stroke-width="4.4" stroke-linecap="round"/>
</g>
<defs>
<clipPath id="clip0_9359_106287">
<rect width="128" height="128" fill="white"/>
</clipPath>
<clipPath id="clip1_9359_106287">
<rect width="128" height="128" fill="white"/>
</clipPath>
</defs>
</svg>
