<svg width="128" height="128" viewBox="0 0 128 128" fill="none" xmlns="http://www.w3.org/2000/svg">
<rect width="128" height="128" rx="32" fill="#4E7BF9"/>
<path fill-rule="evenodd" clip-rule="evenodd" d="M95.6641 84.8051C94.2122 83.2371 94.1675 80.8506 95.3597 79.0772C99.4023 73.0636 101.761 65.8238 101.761 58.033C101.761 37.1747 84.8523 20.2656 63.9939 20.2656C43.1356 20.2656 26.2266 37.1747 26.2266 58.033C26.2266 65.8257 28.5867 73.0672 32.6312 79.0816C33.8237 80.8551 33.7792 83.242 32.3272 84.8101L27.2162 90.33C25.6152 92.0591 25.719 94.7586 27.4481 96.3595L41.5363 109.404C43.2653 111.005 45.9648 110.901 47.5658 109.172L58.6826 97.1661C59.5928 96.1831 60.9114 95.7 62.2498 95.7608C62.8279 95.7871 63.4094 95.8004 63.9939 95.8004C64.5808 95.8004 65.1646 95.787 65.7449 95.7605C67.0836 95.6994 68.4025 96.1825 69.3129 97.1658L80.4301 109.172C82.031 110.901 84.7306 111.005 86.4596 109.404L100.548 96.3595C102.277 94.7586 102.381 92.0591 100.78 90.33L95.6641 84.8051Z" fill="white"/>
<circle cx="64" cy="58" r="22.4269" stroke="#222222" stroke-width="4.5"/>
</svg>
