<svg width="128" height="128" viewBox="0 0 128 128" fill="none" xmlns="http://www.w3.org/2000/svg">
<g id="calendar-128">
<g id="calendar-64">
<g id="Base">
<rect id="Rectangle Rounded" width="128" height="128" rx="32" fill="#FF8227"/>
</g>
<g id="Icon">
<path id="Union" fill-rule="evenodd" clip-rule="evenodd" d="M38 26C38 22.6863 40.6863 20 44 20C47.3137 20 50 22.6863 50 26V34H78V26C78 22.6863 80.6863 20 84 20C87.3137 20 90 22.6863 90 26V34H94C100.627 34 106 39.3726 106 46V92C106 98.6274 100.627 104 94 104H34C27.3726 104 22 98.6274 22 92L22 46C22 39.3726 27.3726 34 34 34H38V26Z" fill="white"/>
<path id="Line" d="M32 52L96 52" stroke="#222222" stroke-width="4" stroke-linecap="round" stroke-linejoin="round"/>
<g id="Dots">
<path id="Vector" fill-rule="evenodd" clip-rule="evenodd" d="M40.0001 73.2019C41.7684 73.2019 43.2018 71.7683 43.2018 70.0002C43.2018 68.2319 41.7684 66.7985 40.0001 66.7985C38.2317 66.7985 36.7983 68.2319 36.7983 70.0002C36.7983 71.7683 38.2317 73.2019 40.0001 73.2019Z" fill="#222222"/>
<path id="Vector_2" fill-rule="evenodd" clip-rule="evenodd" d="M40 89.2045C41.7698 89.2045 43.2045 87.7697 43.2045 86C43.2045 84.2302 41.7698 82.7955 40 82.7955C38.2302 82.7955 36.7955 84.2302 36.7955 86C36.7955 87.7697 38.2302 89.2045 40 89.2045Z" fill="#222222"/>
<path id="Vector_3" fill-rule="evenodd" clip-rule="evenodd" d="M56 73.2015C57.7682 73.2015 59.2015 71.768 59.2015 70C59.2015 68.2318 57.7682 66.7985 56 66.7985C54.2318 66.7985 52.7985 68.2318 52.7985 70C52.7985 71.768 54.2318 73.2015 56 73.2015Z" fill="#222222"/>
<path id="Vector_4" fill-rule="evenodd" clip-rule="evenodd" d="M56 89.2045C57.7698 89.2045 59.2045 87.7697 59.2045 86C59.2045 84.2302 57.7698 82.7955 56 82.7955C54.2302 82.7955 52.7955 84.2302 52.7955 86C52.7955 87.7697 54.2302 89.2045 56 89.2045Z" fill="#222222"/>
<path id="Vector_5" fill-rule="evenodd" clip-rule="evenodd" d="M72 73.2015C73.7682 73.2015 75.2015 71.768 75.2015 70C75.2015 68.2318 73.7682 66.7985 72 66.7985C70.2318 66.7985 68.7985 68.2318 68.7985 70C68.7985 71.768 70.2318 73.2015 72 73.2015Z" fill="#222222"/>
<path id="Vector_6" fill-rule="evenodd" clip-rule="evenodd" d="M72 89.2044C73.7698 89.2044 75.2044 87.7696 75.2044 86C75.2044 84.2302 73.7698 82.7955 72 82.7955C70.2302 82.7955 68.7955 84.2302 68.7955 86C68.7955 87.7696 70.2302 89.2044 72 89.2044Z" fill="#222222"/>
<path id="Vector_7" fill-rule="evenodd" clip-rule="evenodd" d="M88 73.2015C89.7682 73.2015 91.2015 71.768 91.2015 70C91.2015 68.2318 89.7682 66.7985 88 66.7985C86.2318 66.7985 84.7985 68.2318 84.7985 70C84.7985 71.768 86.2318 73.2015 88 73.2015Z" fill="#222222"/>
<path id="Vector_8" fill-rule="evenodd" clip-rule="evenodd" d="M88 89.2045C89.7698 89.2045 91.2045 87.7697 91.2045 86C91.2045 84.2302 89.7698 82.7955 88 82.7955C86.2302 82.7955 84.7955 84.2302 84.7955 86C84.7955 87.7697 86.2302 89.2045 88 89.2045Z" fill="#222222"/>
</g>
</g>
</g>
</g>
</svg>
