<svg width="128" height="128" viewBox="0 0 128 128" fill="none" xmlns="http://www.w3.org/2000/svg">
<g clip-path="url(#clip0_10871_114017)">
<g clip-path="url(#clip1_10871_114017)">
<rect width="128" height="128" rx="32" fill="#7FC911"/>
</g>
<path fill-rule="evenodd" clip-rule="evenodd" d="M108.005 64C108.005 54.3296 104.885 45.3878 99.5974 38.1262C99.4244 26.7604 90.1569 17.6 78.7499 17.6C75.0627 17.6 71.5991 18.5571 68.5938 20.2364C67.0856 20.0801 65.5546 20 64.005 20C46.0932 20 30.6812 30.7029 23.8155 46.0622C17.6991 49.6961 13.6 56.3694 13.6 64C13.6 71.6307 17.6991 78.3039 23.8155 81.9379C30.6813 97.2971 46.0932 108 64.005 108C65.5547 108 67.0856 107.92 68.594 107.764C71.5992 109.443 75.0628 110.4 78.7499 110.4C90.1569 110.4 99.4244 101.24 99.5974 89.8738C104.885 82.6122 108.005 73.6704 108.005 64Z" fill="white"/>
<circle cx="78.7499" cy="89.5499" r="6.85" fill="#222222"/>
<circle cx="78.7499" cy="38.45" r="6.85" fill="#222222"/>
<circle cx="34.45" cy="64" r="6.85" fill="#222222"/>
<circle cx="64" cy="64" r="30" stroke="#222222" stroke-width="4.4"/>
</g>
<defs>
<clipPath id="clip0_10871_114017">
<rect width="128" height="128" fill="white"/>
</clipPath>
<clipPath id="clip1_10871_114017">
<rect width="128" height="128" fill="white"/>
</clipPath>
</defs>
</svg>
