<svg width="128" height="128" viewBox="0 0 128 128" fill="none" xmlns="http://www.w3.org/2000/svg">
<g clip-path="url(#clip0_16389_130485)">
<g clip-path="url(#clip1_16389_130485)">
<rect width="128" height="128" rx="32" fill="#4E7BF9"/>
</g>
<circle cx="64" cy="66" r="44" fill="white"/>
<path d="M52.5873 32.2615L39.0634 15.8556C36.499 12.7448 31.4964 13.7922 30.3953 17.6704L29.1502 22.0561C28.923 22.8563 28.2242 23.4324 27.3953 23.5027L22.8527 23.8881C18.8356 24.2289 16.8529 28.9398 19.4173 32.0506L32.9412 48.4565L48.3609 47.1482L52.5873 32.2615Z" fill="white"/>
<circle cx="64" cy="66" r="8" fill="#222222"/>
<path d="M45.0896 59.4886C43.6703 63.6106 43.6367 68.0834 44.9939 72.2263C46.351 76.3691 49.0246 79.9551 52.6078 82.4383C56.1909 84.9215 60.4872 86.1659 64.8428 85.9822C69.1984 85.7985 73.3747 84.1967 76.736 81.4206C80.0973 78.6445 82.4594 74.8461 83.4629 70.6037C84.4664 66.3613 84.0563 61.9072 82.2949 57.9194C80.5335 53.9316 77.5174 50.6285 73.7057 48.5129C69.894 46.3973 65.4954 45.5851 61.1795 46.1999" stroke="#222222" stroke-width="4.4" stroke-linecap="round" stroke-linejoin="round"/>
<path d="M33.0576 51.9085C29.8735 58.9004 29.1512 66.7646 31.0085 74.2195C32.8658 81.6745 37.1933 88.2806 43.2856 92.9613C49.3779 97.6421 56.8759 100.121 64.5577 99.9954C72.2395 99.8694 79.6522 97.1454 85.5877 92.2673C91.5232 87.3893 95.6316 80.6447 97.2434 73.1329C98.8552 65.621 97.8753 57.7848 94.4635 50.9011C91.0516 44.0174 85.409 38.4922 78.4551 35.2258C71.5012 31.9595 63.646 31.1446 56.1697 32.914" stroke="#222222" stroke-width="4.4" stroke-linecap="round" stroke-linejoin="round"/>
<path d="M64 66L36 32" stroke="#222222" stroke-width="4.4" stroke-linecap="round"/>
<path d="M46.5761 32.9431L36.527 20.7525C35.7408 19.7987 34.2031 20.1519 33.9118 21.3532L32.6061 26.7381C32.449 27.386 31.8831 27.8524 31.2172 27.883L25.682 28.1373C24.4473 28.194 23.8072 29.6361 24.5934 30.5898L34.6425 42.7804C35.2432 43.509 36.1518 43.9123 37.0951 43.869L43.0048 43.5975C44.3367 43.5363 45.4685 42.6034 45.7827 41.3076L47.1768 35.5583C47.3993 34.6406 47.1768 33.6717 46.5761 32.9431Z" fill="#222222"/>
</g>
<defs>
<clipPath id="clip0_16389_130485">
<rect width="128" height="128" fill="white"/>
</clipPath>
<clipPath id="clip1_16389_130485">
<rect width="128" height="128" fill="white"/>
</clipPath>
</defs>
</svg>
