<svg width="128" height="128" viewBox="0 0 128 128" fill="none" xmlns="http://www.w3.org/2000/svg">
<g id="conference-128">
<g id="conference-64">
<g id="Base">
<rect id="Rectangle Rounded" width="128" height="128" rx="32" fill="#7FC911"/>
</g>
<g id="Icon">
<path id="Union" fill-rule="evenodd" clip-rule="evenodd" d="M42.8232 50.334C45.932 48.3904 48 44.9367 48 41C48 34.9249 43.0751 30 37 30C30.9249 30 26 34.9249 26 41C26 44.9367 28.068 48.3904 31.1768 50.334C25.9117 51.6036 22 56.345 22 62V88C22 91.3137 24.6863 94 28 94H46C48.2091 94 50 95.7909 50 98C50 100.209 51.7909 102 54 102H74C76.2091 102 78 100.209 78 98C78 95.7909 79.7909 94 82 94H100C103.314 94 106 91.3137 106 88V62C106 56.345 102.088 51.6036 96.8232 50.334C99.932 48.3904 102 44.9367 102 41C102 34.9249 97.0751 30 91 30C84.9249 30 80 34.9249 80 41C80 44.9367 82.068 48.3904 85.1768 50.334C79.9117 51.6036 76 56.345 76 62C76 62.4081 75.4447 62.5855 75.1818 62.2734C73.7472 60.5703 71.8474 59.272 69.6782 58.5742C73.4417 56.549 76 52.5733 76 48C76 41.3726 70.6274 36 64 36C57.3726 36 52 41.3726 52 48C52 52.5733 54.5583 56.549 58.3218 58.5742C56.1526 59.272 54.2528 60.5703 52.8182 62.2734C52.5553 62.5855 52 62.4081 52 62C52 56.345 48.0883 51.6036 42.8232 50.334Z" fill="white"/>
<g id="Lines">
<path id="Vector" d="M48 68L48 86" stroke="#222222" stroke-width="4" stroke-linecap="round" stroke-linejoin="round"/>
<path id="Vector_2" d="M80 68L80 86" stroke="#222222" stroke-width="4" stroke-linecap="round" stroke-linejoin="round"/>
</g>
</g>
</g>
</g>
</svg>
