<svg width="128" height="128" viewBox="0 0 128 128" fill="none" xmlns="http://www.w3.org/2000/svg">
<rect width="128" height="128" rx="32" fill="#4E7BF9"/>
<path fill-rule="evenodd" clip-rule="evenodd" d="M64 29.7064C47.5872 18.7525 32.0162 15.3807 23.6985 23.6985C15.3807 32.0162 18.7525 47.5872 29.7064 64C18.7525 80.4129 15.3807 95.9838 23.6985 104.302C32.0162 112.619 47.5872 109.248 64 98.2937C80.4129 109.248 95.9838 112.619 104.302 104.302C112.619 95.9838 109.248 80.4129 98.2937 64C109.248 47.5872 112.619 32.0162 104.302 23.6985C95.9838 15.3807 80.4129 18.7525 64 29.7064Z" fill="white"/>
<circle cx="64" cy="64" r="7.49668" fill="#222222"/>
<path d="M99.0867 36.5679C99.0633 31.843 96.5872 29.1634 92.0285 28.9298C87.4699 28.6962 81.0739 30.9213 73.7972 35.272C66.5205 39.6228 58.7543 45.8655 51.6603 53.0662C44.5663 60.267 38.5259 68.0388 34.4425 75.219C30.3591 82.3993 28.4523 88.6021 29.0073 92.8996C29.5623 97.197 32.5492 99.3582 37.5214 99.0597C42.4935 98.7613 49.1836 96.0193 56.5908 91.2439C63.998 86.4685 71.7242 79.9164 78.6137 72.5677" stroke="#222222" stroke-width="4.4" stroke-linecap="round" stroke-linejoin="round"/>
<path d="M85.273 63.1272C90.4786 69.6711 94.4701 76.13 96.7965 81.7739C99.1228 87.4178 99.6911 92.0215 98.4372 95.0647C97.1832 98.1079 94.1571 99.4692 89.7008 98.9946C85.2444 98.5201 79.5357 96.2287 73.2198 92.3795" stroke="#222222" stroke-width="4.4" stroke-linecap="round" stroke-linejoin="round"/>
<path d="M54.3811 77.6171C47.7075 71.2215 41.7479 64.1709 37.2559 57.3569C32.7639 50.5428 29.9413 44.2715 29.1451 39.3358C28.3489 34.4001 29.6148 31.0218 32.7827 29.6281C35.9506 28.2344 40.8782 28.8878 46.9425 31.5058" stroke="#222222" stroke-width="4.4" stroke-linecap="round" stroke-linejoin="round"/>
</svg>
