<svg width="128" height="128" viewBox="0 0 128 128" fill="none" xmlns="http://www.w3.org/2000/svg">
<g clip-path="url(#clip0_22665_84786)">
<g clip-path="url(#clip1_22665_84786)">
<rect width="128" height="128" rx="32" fill="#FF5A49"/>
</g>
<path fill-rule="evenodd" clip-rule="evenodd" d="M34 22C27.3725 22 22 27.3726 22 34V89.3333L15.3451 97.467C13.2082 100.079 15.0664 104 18.4409 104H109.559C112.933 104 114.792 100.079 112.655 97.467L106 89.3333V34C106 27.3726 100.627 22 94 22H34Z" fill="white"/>
<rect x="34.25" y="34.25" width="59.5" height="47.5" rx="6" stroke="#222222" stroke-width="4.5"/>
<path d="M49 66.5001L56.7929 58.7073C57.1834 58.3168 57.1834 57.6836 56.7929 57.2931L49 49.5001" stroke="#222222" stroke-width="4.5" stroke-linecap="round" stroke-linejoin="round"/>
<path d="M66 66.25H80" stroke="#222222" stroke-width="4.5" stroke-linecap="round"/>
</g>
<defs>
<clipPath id="clip0_22665_84786">
<rect width="128" height="128" fill="white"/>
</clipPath>
<clipPath id="clip1_22665_84786">
<rect width="128" height="128" fill="white"/>
</clipPath>
</defs>
</svg>
