<svg width="128" height="128" viewBox="0 0 128 128" fill="none" xmlns="http://www.w3.org/2000/svg">
<rect width="128" height="128" rx="32" fill="#00CCAE"/>
<path d="M22 39.0893C22 36.6223 23.51 34.4068 25.8061 33.5048L46.5107 25.3708C48.7604 24.487 51.2542 24.4479 53.5305 25.2609L74.4695 32.7391C76.7458 33.5521 79.2396 33.513 81.4893 32.6292L100.537 25.146C103.161 24.1151 106 26.0497 106 28.869V88.9107C106 91.3777 104.49 93.5932 102.194 94.4952L81.4893 102.629C79.2396 103.513 76.7458 103.552 74.4695 102.739L53.5305 95.2609C51.2542 94.4479 48.7604 94.487 46.5107 95.3708L27.4626 102.854C24.8385 103.885 22 101.95 22 99.131V39.0893Z" fill="white"/>
<path fill-rule="evenodd" clip-rule="evenodd" d="M48.9962 50.4981C48.9962 47.4609 46.5352 45 43.4981 45C40.4609 45 38 47.4609 38 50.4981C38 53.5352 40.4609 55.9962 43.4981 55.9962C46.5352 55.9962 48.9962 53.5352 48.9962 50.4981Z" fill="#222222"/>
<path fill-rule="evenodd" clip-rule="evenodd" d="M89.0015 77.1007C89.0015 74.0621 86.5394 71.6 83.5008 71.6C80.4621 71.6 78 74.0621 78 77.1007C78 80.1394 80.4621 82.6015 83.5008 82.6015C86.5394 82.6015 89.0015 80.1394 89.0015 77.1007Z" fill="#222222"/>
<path d="M45 49.9618C45 49.9618 62.862 39.3656 68.9271 47.9655C77.3857 59.9591 48.0597 66.6297 56.4963 78.7941C63.1205 88.3453 83 76.9094 83 76.9094" stroke="#222222" stroke-width="4" stroke-linecap="round" stroke-linejoin="round"/>
</svg>
