<svg width="128" height="128" viewBox="0 0 128 128" fill="none" xmlns="http://www.w3.org/2000/svg">
<g clip-path="url(#clip0_20125_65615)">
<g clip-path="url(#clip1_20125_65615)">
<rect width="128" height="128" rx="32" fill="#B750D1"/>
</g>
<path fill-rule="evenodd" clip-rule="evenodd" d="M56.8921 25.5677C61.3709 23.3465 66.6305 23.3465 71.1093 25.5677L108.363 44.0428C111.327 45.5126 111.327 49.74 108.363 51.2099L100.888 54.9171C100.147 55.2845 100.147 56.3414 100.888 56.7089L108.363 60.4161C111.327 61.8859 111.327 66.1133 108.363 67.5832L100.887 71.2907C100.146 71.6581 100.146 72.715 100.887 73.0824L108.363 76.7899C111.327 78.2597 111.327 82.4872 108.363 83.957L71.1094 102.432C66.6305 104.653 61.3709 104.653 56.8921 102.432L19.6381 83.957C16.6743 82.4872 16.6743 78.2597 19.6381 76.7899L27.1141 73.0824C27.855 72.715 27.855 71.6581 27.1141 71.2907L19.6381 67.5832C16.6743 66.1133 16.6743 61.8859 19.6381 60.4161L27.1135 56.7089C27.8545 56.3414 27.8545 55.2845 27.1135 54.9171L19.6381 51.2099C16.6743 49.7401 16.6743 45.5126 19.6381 44.0428L56.8921 25.5677Z" fill="white"/>
<path d="M87.1604 76.6329L69.3665 85.5298C65.9882 87.2189 62.0117 87.2189 58.6334 85.5298L40.8396 76.6329" stroke="#222222" stroke-width="4.4" stroke-linecap="round"/>
<path d="M87.1604 59.7889L69.3665 68.6859C65.9882 70.375 62.0117 70.375 58.6334 68.6858L40.8396 59.7889" stroke="#222222" stroke-width="4.4" stroke-linecap="round"/>
</g>
<defs>
<clipPath id="clip0_20125_65615">
<rect width="128" height="128" fill="white"/>
</clipPath>
<clipPath id="clip1_20125_65615">
<rect width="128" height="128" fill="white"/>
</clipPath>
</defs>
</svg>
