<svg width="128" height="128" viewBox="0 0 128 128" fill="none" xmlns="http://www.w3.org/2000/svg">
<g clip-path="url(#clip0_24221_103125)">
<g clip-path="url(#clip1_24221_103125)">
<rect width="128" height="128" rx="32" fill="#3DBC5D"/>
</g>
<path fill-rule="evenodd" clip-rule="evenodd" d="M24.4772 34.2702C21.7791 35.3126 20 37.9072 20 40.7998L20 48C20 90.1976 52.9782 106.925 61.8336 110.655C63.2375 111.247 64.7626 111.247 66.1665 110.656C75.0231 106.925 108.008 90.1982 108 48V40.7998C108 37.9072 106.221 35.3126 103.523 34.2702L69.0456 20.9494C65.7988 19.695 62.2012 19.695 58.9544 20.9494L24.4772 34.2702Z" fill="white"/>
<path d="M48.4436 48.4437C51.5204 45.3669 55.4404 43.2716 59.708 42.4227C63.9756 41.5738 68.3991 42.0095 72.419 43.6746C76.439 45.3398 79.8749 48.1596 82.2923 51.7775C84.7097 55.3953 86 59.6488 86 64C86 68.3512 84.7097 72.6047 82.2923 76.2225C79.8749 79.8404 76.439 82.6602 72.419 84.3253C68.3991 85.9905 63.9756 86.4262 59.708 85.5773C55.4404 84.7284 51.5204 82.6331 48.4437 79.5564" stroke="#222222" stroke-width="4.4" stroke-linecap="round" stroke-linejoin="round"/>
<path d="M42 64L62 64" stroke="#222222" stroke-width="4.4" stroke-linecap="round"/>
</g>
<defs>
<clipPath id="clip0_24221_103125">
<rect width="128" height="128" fill="white"/>
</clipPath>
<clipPath id="clip1_24221_103125">
<rect width="128" height="128" fill="white"/>
</clipPath>
</defs>
</svg>
