<svg width="128" height="128" viewBox="0 0 128 128" fill="none" xmlns="http://www.w3.org/2000/svg">
<rect width="128" height="128" rx="32" fill="#51ADFF"/>
<path fill-rule="evenodd" clip-rule="evenodd" d="M28 30C24.6863 30 22 32.6863 22 36V86C22 89.3137 24.6863 92 28 92H28.6116C29.4022 92 30 92.7094 30 93.5V93.5C30 98.7467 34.2533 103 39.5 103C44.7467 103 49 98.7467 49 93.5V93.5C49 92.7094 49.5978 92 50.3884 92H64H74H80.6116C81.4022 92 82 92.7094 82 93.5V93.5C82 98.7467 86.2533 103 91.5 103C96.7467 103 101 98.7467 101 93.5V93.5C101 92.7094 101.598 92 102.388 92H104C107.314 92 110 89.3137 110 86V68.4763C110 67.5066 109.765 66.5513 109.315 65.6923L101.808 51.3599C100.082 48.0648 96.6691 46 92.9493 46H82C80.8954 46 80 45.1046 80 44V36C80 32.6863 77.3137 30 74 30H28Z" fill="white"/>
<path d="M80 54V62C80 65.3137 82.6863 68 86 68H100" stroke="#222222" stroke-width="4.4" stroke-linecap="round" stroke-linejoin="round"/>
</svg>
