<svg width="128" height="128" viewBox="0 0 128 128" fill="none" xmlns="http://www.w3.org/2000/svg">
<g clip-path="url(#clip0_23562_73024)">
<g clip-path="url(#clip1_23562_73024)">
<rect width="128" height="128" rx="32" fill="#FF8227"/>
</g>
<path fill-rule="evenodd" clip-rule="evenodd" d="M93.3277 63.2085C95.5439 62.6707 97.7 61.722 99.685 60.3424C108.302 54.3537 110.432 42.5137 104.443 33.897C98.4423 25.2626 89.9432 21.3386 83.1149 19.5904C76.4164 17.8754 70.0211 17.8888 65.8773 18.0925C51.1734 18.8154 31.7531 25.9688 27.2419 45.1944C26.444 48.5949 26.2797 52.0357 26.7324 55.3708C20.4457 61.4298 16.0232 70.1448 17.2989 80.6446C18.8258 93.212 27.4149 100.794 35.1893 104.543C42.6567 108.144 51.0255 109.248 58.2341 109.178C65.6159 109.107 73.423 107.794 80.4192 105.143C86.8919 102.69 95.4488 98.0228 100.493 89.3108C105.752 80.2298 102.653 68.6057 93.5717 63.3475C93.4906 63.3005 93.4092 63.2542 93.3277 63.2085Z" fill="white"/>
<path d="M63.0046 62C44.004 62 33.9475 70.3036 35.004 79C37.1175 96.3953 77.167 94.0277 85 80.5001" stroke="#222222" stroke-width="4.4" stroke-linecap="round" stroke-linejoin="round"/>
<path d="M90.0012 43.9999C84.6128 36.2549 73.9947 35.6565 67.0013 36C55.0129 36.5887 46.6696 41.911 45.0045 49C43.3904 55.8719 49.0041 61.9999 63.0016 61.9999H74.0012" stroke="#222222" stroke-width="4.4" stroke-linecap="round" stroke-linejoin="round"/>
</g>
<defs>
<clipPath id="clip0_23562_73024">
<rect width="128" height="128" fill="white"/>
</clipPath>
<clipPath id="clip1_23562_73024">
<rect width="128" height="128" fill="white"/>
</clipPath>
</defs>
</svg>
