<svg width="128" height="128" viewBox="0 0 128 128" fill="none" xmlns="http://www.w3.org/2000/svg">
<g clip-path="url(#clip0_0_15234)">
<g clip-path="url(#clip1_0_15234)">
<g clip-path="url(#clip2_0_15234)">
<g clip-path="url(#clip3_0_15234)">
<rect width="128" height="128" rx="32" fill="#FE4C4C"/>
</g>
<path fill-rule="evenodd" clip-rule="evenodd" d="M74 30C74 32.2317 73.2892 34.3211 72.0512 36.1111C71.5384 36.8524 72.0238 38 72.9252 38H90C93.3137 38 96 40.6863 96 44V55.9916C96 56.7929 96.9095 57.2853 97.6388 56.9533C98.9905 56.3378 100.461 56 102 56C108.627 56 114 62.268 114 70C114 77.732 108.627 84 102 84C100.461 84 98.9905 83.6622 97.6388 83.0467C96.9095 82.7147 96 83.2071 96 84.0084V96C96 99.3137 93.3137 102 90 102H32C28.6863 102 26 99.3137 26 96V44C26 40.6863 28.6863 38 32 38H47.0748C47.9762 38 48.4616 36.8524 47.9488 36.1111C46.7108 34.3211 46 32.2317 46 30C46 23.3726 52.268 18 60 18C67.732 18 74 23.3726 74 30Z" fill="white"/>
<path d="M40 73.5961L57.6011 64.3186C59.5989 63.2656 62 64.7142 62 66.9725V70.7873C62 73.1004 64.5072 74.5433 66.5071 73.3812L84 63.2174" stroke="#222222" stroke-width="4.4" stroke-linecap="round"/>
</g>
</g>
</g>
<defs>
<clipPath id="clip0_0_15234">
<rect width="128" height="128" fill="white"/>
</clipPath>
<clipPath id="clip1_0_15234">
<rect width="128" height="128" fill="white"/>
</clipPath>
<clipPath id="clip2_0_15234">
<rect width="128" height="128" fill="white"/>
</clipPath>
<clipPath id="clip3_0_15234">
<rect width="128" height="128" fill="white"/>
</clipPath>
</defs>
</svg>
