<svg width="128" height="128" viewBox="0 0 128 128" fill="none" xmlns="http://www.w3.org/2000/svg">
<g id="focus-128">
<g id="focus-64">
<g id="Base">
<rect id="Rectangle Rounded" width="128" height="128" rx="32" fill="#3DBC5D"/>
</g>
<g id="Icon">
<path id="P64" fill-rule="evenodd" clip-rule="evenodd" d="M21.5736 51.2721C14.5442 58.3015 14.5442 69.6985 21.5736 76.7279L51.2721 106.426C58.3015 113.456 69.6985 113.456 76.728 106.426L106.426 76.7279C113.456 69.6985 113.456 58.3015 106.426 51.2721L76.7279 21.5736C69.6985 14.5442 58.3015 14.5442 51.2721 21.5736L21.5736 51.2721Z" fill="white"/>
<g id="Focus">
<path id="Path" fill-rule="evenodd" clip-rule="evenodd" d="M94.5958 57.4928C94.5958 52.9632 90.9255 49.293 86.396 49.293C81.8664 49.293 78.1962 52.9632 78.1962 57.4928C78.1962 62.0223 81.8664 65.6926 86.396 65.6926C90.9255 65.6926 94.5958 62.0223 94.5958 57.4928Z" stroke="#222222" stroke-width="4.4"/>
<path id="Path_2" fill-rule="evenodd" clip-rule="evenodd" d="M71.715 81.5483C71.715 76.4393 67.571 72.2983 62.465 72.2983C57.3559 72.2983 53.215 76.4393 53.215 81.5483C53.215 86.6574 57.3559 90.7983 62.465 90.7983C67.571 90.7983 71.715 86.6574 71.715 81.5483Z" stroke="#222222" stroke-width="4.4"/>
<path id="Path_3" fill-rule="evenodd" clip-rule="evenodd" d="M48.5528 63.469C48.5528 58.9393 44.8825 55.269 40.3528 55.269C35.8232 55.269 32.1528 58.9393 32.1528 63.469C32.1528 67.9987 35.8232 71.669 40.3528 71.669C44.8825 71.669 48.5528 67.9987 48.5528 63.469Z" stroke="#222222" stroke-width="4.4"/>
<path id="Path_4" d="M69.0728 75.0671L80.7289 63.4109" stroke="#222222" stroke-width="4.4"/>
<path id="Path_5" d="M54.5125 76.82L46.4872 68.7946" stroke="#222222" stroke-width="4.4"/>
</g>
</g>
</g>
</g>
</svg>
