<svg width="128" height="128" viewBox="0 0 128 128" fill="none" xmlns="http://www.w3.org/2000/svg">
<g clip-path="url(#clip0_16673_133156)">
<g clip-path="url(#clip1_16673_133156)">
<rect width="128" height="128" rx="32" fill="#4E7BF9"/>
</g>
<path d="M105.685 27.8431C107.354 26.9793 109.483 27.7161 109.769 29.5731C111.325 39.6695 104.853 49.3358 95.3231 53.7733C95.3231 64.6843 95.3194 75.5953 75.9551 80.5548C75.9551 98.4091 59.3646 102.261 46.9026 101.385C9.06088 98.7249 9.01541 44.6733 43.029 36.4248C62.9094 30.7093 86.533 37.7583 105.685 27.8431Z" fill="white"/>
<path fill-rule="evenodd" clip-rule="evenodd" d="M75.9551 80.5584C75.9549 82.2175 75.8114 83.7556 75.5413 85.1802C70.8055 86.2459 65.8314 86.7683 61.1542 86.7683C59.9392 86.7683 58.9542 85.7834 58.9542 84.5683C58.9542 83.3533 59.9392 82.3683 61.1542 82.3683C66.0507 82.3683 71.2097 81.7557 75.9551 80.5584ZM95.3231 53.7743C95.3231 55.3302 95.3231 56.8861 95.2668 58.4247C88.1784 60.6945 80.156 62.3683 73.2056 62.3683C71.9906 62.3683 71.0056 61.3833 71.0056 60.1683C71.0056 58.9533 71.9906 57.9683 73.2056 57.9683C79.816 57.9683 87.7355 56.2875 94.7836 53.9547C94.9642 53.8949 95.1441 53.8348 95.3231 53.7743Z" fill="#222222"/>
</g>
<defs>
<clipPath id="clip0_16673_133156">
<rect width="128" height="128" fill="white"/>
</clipPath>
<clipPath id="clip1_16673_133156">
<rect width="128" height="128" fill="white"/>
</clipPath>
</defs>
</svg>
