<svg width="128" height="128" viewBox="0 0 128 128" fill="none" xmlns="http://www.w3.org/2000/svg">
<g id="gosoblako-128">
<g id="gosoblako-64">
<g id="Base">
<rect id="Rectangle Rounded" width="128" height="128" rx="32" fill="#51ADFF"/>
</g>
<g id="Icon">
<path id="Shield" d="M32.5333 23.9492C27.8205 23.9492 24 27.7697 24 32.4826V89.0159C24 97.2633 30.6859 103.949 38.9333 103.949H52.5923C54.0068 103.949 55.3633 104.511 56.3635 105.511L60.2366 109.384C62.3194 111.467 65.6963 111.467 67.779 109.384L71.6521 105.511C72.6523 104.511 74.0088 103.949 75.4233 103.949H89.0667C97.3141 103.949 104 97.2633 104 89.0159V32.4826C104 27.7697 100.179 23.9492 95.4667 23.9492H32.5333Z" fill="white"/>
<path id="Kontur Cloud" d="M75.3513 81.5159L75.4141 79.3168C75.3932 79.3162 75.3723 79.3159 75.3513 79.3159V81.5159ZM74.0053 53.1594L72.0462 54.1602C72.4667 54.9834 73.357 55.456 74.2745 55.3429L74.0053 53.1594ZM48.1138 56.974L48.5157 59.137C49.4152 58.9699 50.1174 58.2635 50.2792 57.363L48.1138 56.974ZM50.7794 81.5159V79.3159C50.7567 79.3159 50.734 79.3162 50.7114 79.3169L50.7794 81.5159ZM75.2886 83.715C75.4469 83.7195 75.6057 83.7218 75.7649 83.7218V79.3218C75.6475 79.3218 75.5306 79.3201 75.4141 79.3168L75.2886 83.715ZM75.7649 83.7218C84.8418 83.7218 92.2 76.3636 92.2 67.2867H87.8C87.8 73.9335 82.4117 79.3218 75.7649 79.3218V83.7218ZM92.2 67.2867C92.2 58.2099 84.8418 50.8517 75.7649 50.8517V55.2517C82.4117 55.2517 87.8 60.64 87.8 67.2867H92.2ZM75.7649 50.8517C75.079 50.8517 74.4018 50.8938 73.7361 50.9759L74.2745 55.3429C74.762 55.2828 75.2593 55.2517 75.7649 55.2517V50.8517ZM75.9645 52.1586C73.3186 46.979 67.9274 43.425 61.7024 43.425V47.825C66.2108 47.825 70.1228 50.3951 72.0462 54.1602L75.9645 52.1586ZM61.7024 43.425C53.8323 43.425 47.2928 49.1026 45.9485 56.585L50.2792 57.363C51.2535 51.94 55.9996 47.825 61.7024 47.825V43.425ZM47.7119 54.811C40.9393 56.0694 35.811 62.0053 35.811 69.1436H40.211C40.211 64.1638 43.7894 60.0152 48.5157 59.137L47.7119 54.811ZM35.811 69.1436C35.811 77.195 42.3379 83.7219 50.3893 83.7219V79.3219C44.768 79.3219 40.211 74.7649 40.211 69.1436H35.811ZM50.3893 83.7219C50.5425 83.7219 50.6953 83.7195 50.8475 83.7148L50.7114 79.3169C50.6044 79.3202 50.4971 79.3219 50.3893 79.3219V83.7219ZM50.7794 83.7159H75.3513V79.3159H50.7794V83.7159Z" fill="#222222"/>
</g>
</g>
</g>
</svg>
