<svg width="128" height="128" viewBox="0 0 128 128" fill="none" xmlns="http://www.w3.org/2000/svg">
<g id="hotel-128">
<g id="hotel-64">
<g id="Base">
<rect id="Rectangle Rounded" width="128" height="128" rx="32" fill="#51ADFF"/>
</g>
<g id="Icon">
<path id="Union" fill-rule="evenodd" clip-rule="evenodd" d="M23.8812 30.1505C20.9563 30.1505 19.0204 33.1872 20.255 35.8388L25.367 46.818C25.6984 47.5298 26.0416 48.2649 26.0416 49.05V95.4495C26.0416 98.9841 28.907 101.849 32.4417 101.849H95.5583C99.0929 101.849 101.958 98.9841 101.958 95.4495V49.05C101.958 48.2649 102.302 47.5298 102.633 46.818L107.745 35.8388C108.98 33.1872 107.044 30.1505 104.119 30.1505H23.8812Z" fill="white"/>
<g id="Stars">
<path id="Star 3" d="M83.7939 47.8942C84.1132 46.9115 85.5035 46.9115 85.8228 47.8942L86.9677 51.4178C87.1105 51.8573 87.52 52.1549 87.9822 52.1549H91.6871C92.7204 52.1549 93.15 53.4771 92.3141 54.0845L89.3167 56.2622C88.9429 56.5338 88.7864 57.0153 88.9292 57.4548L90.0741 60.9784C90.3934 61.9611 89.2686 62.7783 88.4327 62.171L85.4353 59.9933C85.0615 59.7216 84.5552 59.7216 84.1814 59.9933L81.184 62.171C80.348 62.7783 79.2233 61.9611 79.5426 60.9784L80.6875 57.4548C80.8303 57.0153 80.6738 56.5338 80.3 56.2622L77.3026 54.0845C76.4667 53.4771 76.8963 52.1549 77.9296 52.1549H81.6345C82.0966 52.1549 82.5062 51.8573 82.649 51.4178L83.7939 47.8942Z" fill="#222222"/>
<path id="Star 2" d="M62.426 47.8942C62.7453 46.9115 64.1356 46.9115 64.4549 47.8942L65.5998 51.4178C65.7426 51.8573 66.1521 52.1549 66.6142 52.1549H70.3192C71.3525 52.1549 71.7821 53.4771 70.9462 54.0845L67.9488 56.2622C67.5749 56.5338 67.4185 57.0153 67.5613 57.4548L68.7062 60.9784C69.0255 61.9611 67.9007 62.7783 67.0648 62.171L64.0674 59.9933C63.6935 59.7216 63.1873 59.7216 62.8135 59.9933L59.8161 62.171C58.9801 62.7783 57.8553 61.9611 58.1747 60.9784L59.3195 57.4548C59.4623 57.0153 59.3059 56.5338 58.9321 56.2622L55.9347 54.0845C55.0987 53.4771 55.5284 52.1549 56.5617 52.1549H60.2666C60.7287 52.1549 61.1383 51.8573 61.2811 51.4178L62.426 47.8942Z" fill="#222222"/>
<path id="Star 1" d="M41.0591 47.8934C41.3784 46.9107 42.7688 46.9107 43.0881 47.8934L44.233 51.417C44.3758 51.8565 44.7853 52.1541 45.2474 52.1541H48.9524C49.9857 52.1541 50.4153 53.4763 49.5793 54.0837L46.582 56.2614C46.2081 56.533 46.0517 57.0145 46.1945 57.454L47.3394 60.9776C47.6587 61.9603 46.5339 62.7775 45.6979 62.1702L42.7006 59.9925C42.3267 59.7208 41.8205 59.7208 41.4466 59.9925L38.4493 62.1702C37.6133 62.7775 36.4885 61.9603 36.8078 60.9776L37.9527 57.454C38.0955 57.0145 37.9391 56.533 37.5652 56.2614L34.5679 54.0837C33.7319 53.4763 34.1615 52.1541 35.1948 52.1541H38.8998C39.3619 52.1541 39.7714 51.8565 39.9142 51.417L41.0591 47.8934Z" fill="#222222"/>
</g>
<path id="Line" d="M76.6527 101.85V84.9792C76.6527 77.9913 70.9879 72.3264 63.9999 72.3264V72.3264C57.012 72.3264 51.3472 77.9913 51.3472 84.9792V101.85" stroke="#222222" stroke-width="4.4" stroke-linejoin="round"/>
</g>
</g>
</g>
</svg>
