<svg width="128" height="128" viewBox="0 0 128 128" fill="none" xmlns="http://www.w3.org/2000/svg">
<g clip-path="url(#clip0_18717_35231)">
<g clip-path="url(#clip1_18717_35231)">
<rect width="128" height="128" rx="32" fill="#B750D1"/>
</g>
<path fill-rule="evenodd" clip-rule="evenodd" d="M94.4117 16.3616C94.3073 15.0285 93.195 14 91.8579 14H84.8414C83.5042 14 82.392 15.0285 82.2875 16.3616L82.0106 19.8958C81.9326 20.891 81.2764 21.7361 80.3748 22.1647C79.4656 22.5969 78.5969 23.1008 77.776 23.669C76.9541 24.238 75.8924 24.3844 74.9904 23.9534L71.7959 22.4273C70.5887 21.8506 69.141 22.2999 68.4726 23.4588L64.9625 29.5439C64.2948 30.7015 64.629 32.1778 65.7302 32.9348L68.6534 34.9446C69.4749 35.5093 69.8785 36.4985 69.799 37.4923C69.7592 37.9896 69.7389 38.4925 69.7389 39.0001C69.7389 39.5075 69.7592 40.0101 69.7989 40.5072C69.8784 41.5009 69.4748 42.49 68.6533 43.0548L65.7302 45.0644C64.629 45.8215 64.2948 47.2978 64.9625 48.4554L68.4726 54.5405C69.141 55.6993 70.5887 56.1487 71.7958 55.572L74.9895 54.0462C75.8916 53.6153 76.9533 53.7617 77.7753 54.3308C78.5964 54.8992 79.4653 55.4032 80.3748 55.8356C81.2764 56.2642 81.9326 57.1093 82.0106 58.1045L82.2875 61.6384C82.392 62.9715 83.5042 64 84.8414 64H91.8579C93.195 64 94.3073 62.9715 94.4117 61.6384L94.6887 58.1045C94.7667 57.1092 95.4229 56.2642 96.3244 55.8356C97.2339 55.4032 98.1027 54.8992 98.9237 54.3309C99.7457 53.7618 100.807 53.6154 101.709 54.0464L104.903 55.5722C106.111 56.1489 107.558 55.6996 108.227 54.5407L111.737 48.4556C112.404 47.2981 112.07 45.8217 110.969 45.0647L108.046 43.055C107.224 42.4902 106.821 41.5011 106.9 40.5074C106.94 40.0102 106.96 39.5075 106.96 39.0001C106.96 38.4925 106.94 37.9895 106.9 37.4921C106.821 36.4983 107.224 35.5091 108.046 34.9443L110.969 32.9346C112.07 32.1775 112.404 30.7012 111.737 29.5437L108.227 23.4585C107.558 22.2997 106.11 21.8503 104.903 22.4271L101.709 23.9533C100.807 24.3842 99.7449 24.2378 98.9229 23.6689C98.1022 23.1007 97.2336 22.5969 96.3244 22.1647C95.4229 21.7361 94.7667 20.891 94.6887 19.8958L94.4117 16.3616Z" fill="white"/>
<circle cx="88.3496" cy="39" r="11" stroke="#222222" stroke-width="4.4"/>
<path fill-rule="evenodd" clip-rule="evenodd" d="M56.9452 51.2223C56.8085 49.4049 55.294 48 53.4714 48H44.5871C42.7645 48 41.25 49.4049 41.1132 51.2223L40.7399 56.1852C40.6368 57.5556 39.7278 58.7174 38.4821 59.2977C37.1438 59.9212 35.87 60.6597 34.6732 61.5004C33.5472 62.2914 32.0843 62.4974 30.845 61.8995L26.3802 59.7454C24.7375 58.9528 22.7615 59.5615 21.8495 61.1411L17.408 68.8341C16.4974 70.4112 16.9552 72.4234 18.4584 73.4514L22.562 76.2578C23.6938 77.0319 24.2444 78.3965 24.1251 79.7626C24.0616 80.4887 24.0292 81.2237 24.0292 81.9663C24.0292 82.727 24.0632 83.4797 24.1298 84.2231C24.2523 85.5918 23.702 86.9605 22.5677 87.7363L18.4575 90.5472C16.9544 91.5752 16.4966 93.5875 17.4071 95.1645L21.8504 102.86C22.7623 104.44 24.7383 105.049 26.381 104.256L30.9034 102.074C32.1397 101.478 33.5987 101.681 34.7238 102.468C35.9045 103.293 37.1598 104.019 38.4775 104.633C39.7229 105.213 40.6316 106.375 40.7346 107.745L41.1132 112.778C41.25 114.595 42.7645 116 44.5871 116H53.4714C55.294 116 56.8085 114.595 56.9452 112.778L57.3239 107.745C57.4269 106.375 58.3356 105.213 59.581 104.633C60.899 104.018 62.1546 103.292 63.3355 102.467C64.4607 101.681 65.9197 101.477 67.156 102.074L71.6784 104.256C73.3211 105.048 75.2971 104.439 76.2091 102.86L80.6506 95.1669C81.5612 93.5898 81.1034 91.5776 79.6002 90.5496L75.4906 87.7391C74.3562 86.9632 73.8059 85.5944 73.9285 84.2255C73.9952 83.4813 74.0292 82.7278 74.0292 81.9663C74.0292 81.2241 73.9969 80.4894 73.9335 79.7636C73.8142 78.3977 74.3648 77.0331 75.4966 76.2591L79.6011 73.4519C81.1043 72.4239 81.562 70.4117 80.6515 68.8346L76.2083 61.1387C75.2963 59.5592 73.3204 58.9504 71.6776 59.743L67.2111 61.8978C65.9719 62.4957 64.5092 62.2897 63.3833 61.499C62.1871 60.6588 60.9139 59.9209 59.5764 59.2977C58.3307 58.7174 57.4217 57.5556 57.3186 56.1852L56.9452 51.2223Z" fill="white"/>
<circle cx="49.0294" cy="82.004" r="15" stroke="#222222" stroke-width="4.4"/>
</g>
<defs>
<clipPath id="clip0_18717_35231">
<rect width="128" height="128" fill="white"/>
</clipPath>
<clipPath id="clip1_18717_35231">
<rect width="128" height="128" fill="white"/>
</clipPath>
</defs>
</svg>
