<svg width="128" height="128" viewBox="0 0 128 128" fill="none" xmlns="http://www.w3.org/2000/svg">
<rect width="128" height="128" rx="32" fill="#51ADFF"/>
<path d="M58.0205 19.7846C61.3544 16.5593 66.6456 16.5593 69.9795 19.7846L73.3392 23.0348C75.2457 24.8791 77.8967 25.7405 80.5232 25.369L85.1516 24.7143C89.7446 24.0647 94.0252 27.1747 94.8267 31.7437L95.6343 36.3479C96.0927 38.9606 97.731 41.2157 100.074 42.4589L104.204 44.6498C108.301 46.8239 109.936 51.8561 107.899 56.0236L105.846 60.2232C104.681 62.6063 104.681 65.3937 105.846 67.7768L107.899 71.9764C109.936 76.1439 108.301 81.1761 104.204 83.3502L100.074 85.5411C97.731 86.7843 96.0927 89.0394 95.6343 91.6521L94.8267 96.2563C94.0252 100.825 89.7446 103.935 85.1516 103.286L80.5232 102.631C77.8967 102.26 75.2457 103.121 73.3392 104.965L69.9795 108.215C66.6456 111.441 61.3544 111.441 58.0205 108.215L54.6608 104.965C52.7543 103.121 50.1033 102.26 47.4768 102.631L42.8484 103.286C38.2554 103.935 33.9748 100.825 33.1733 96.2563L32.3657 91.6521C31.9073 89.0394 30.269 86.7843 27.9257 85.5411L23.7964 83.3502C19.6988 81.1761 18.0637 76.1439 20.1009 71.9764L22.1538 67.7768C23.3187 65.3937 23.3187 62.6063 22.1538 60.2232L20.1009 56.0236C18.0637 51.8561 19.6988 46.8239 23.7964 44.6498L27.9257 42.4589C30.269 41.2157 31.9073 38.9606 32.3657 36.3479L33.1733 31.7437C33.9748 27.1747 38.2554 24.0647 42.8484 24.7143L47.4768 25.369C50.1033 25.7405 52.7543 24.8791 54.6608 23.0348L58.0205 19.7846Z" fill="white"/>
<circle cx="47.6364" cy="51.6364" r="7.63636" stroke="#222222" stroke-width="4.4"/>
<circle cx="80.3637" cy="76.3634" r="7.63636" stroke="#222222" stroke-width="4.4"/>
<path d="M46 82L82 46" stroke="#222222" stroke-width="4.4" stroke-linecap="round"/>
</svg>
