<svg width="128" height="128" viewBox="0 0 128 128" fill="none" xmlns="http://www.w3.org/2000/svg">
<rect width="128" height="128" rx="32" fill="#51ADFF"/>
<path fill-rule="evenodd" clip-rule="evenodd" d="M74 22.0001C74 18.6864 71.3137 16.0001 68 16.0001H60C56.6863 16.0001 54 18.6864 54 22.0001V37.7095C54 40.1963 52.4325 42.3723 50.2664 43.5938C41.7505 48.3961 36 57.5265 36 68.0001V104C36 107.314 38.6863 110 42 110H86C89.3137 110 92 107.314 92 104V68.0001C92 57.5265 86.2495 48.3961 77.7336 43.5938C75.5675 42.3723 74 40.1962 74 37.7095V22.0001Z" fill="white"/>
<path d="M50 70.0001L62.3385 83.4004C64.6488 85.9095 68.5833 85.9906 70.995 83.5788L103.574 51.0001" stroke="#222222" stroke-width="4.6" stroke-linecap="round" stroke-linejoin="round"/>
</svg>
