<svg width="128" height="128" viewBox="0 0 128 128" fill="none" xmlns="http://www.w3.org/2000/svg">
<rect width="128" height="128" rx="32" fill="#00CCAE"/>
<path fill-rule="evenodd" clip-rule="evenodd" d="M26.0893 35.6992C23.6269 36.6546 22.0044 39.0246 22.0044 41.6658L22.0044 48.9157C22.0044 89.3488 53.7009 105.185 62.0028 108.64C63.2784 109.171 64.669 109.171 65.9446 108.64C74.248 105.186 105.953 89.3495 105.945 48.9157C106.013 47.5218 106.011 44.3033 105.995 41.6044C105.979 38.9936 104.36 36.6658 101.926 35.7216L68.9891 22.9455C65.7626 21.6939 62.1848 21.6941 58.9584 22.9459L26.0893 35.6992Z" fill="white"/>
<path fill-rule="evenodd" clip-rule="evenodd" d="M65.8 40.013C65.2058 39.969 64.6055 39.9467 64 39.9467C50.7157 39.9467 39.9467 50.7157 39.9467 64C39.9467 77.2843 50.7157 88.0533 64 88.0533C64.6055 88.0533 65.2058 88.0309 65.8 87.987V87.88C65.2058 87.9242 64.6055 87.9467 64 87.9467C50.7746 87.9467 40.0533 77.2254 40.0533 64C40.0533 50.7746 50.7746 40.0533 64 40.0533C64.6055 40.0533 65.2058 40.0758 65.8 40.12V40.013Z" fill="#222222"/>
<path d="M65.8 40.013H68C68 38.8609 67.1113 37.904 65.9624 37.819L65.8 40.013ZM65.8 87.987L65.9624 90.181C67.1113 90.096 68 89.139 68 87.987H65.8ZM65.8 87.88H68C68 87.2682 67.7453 86.684 67.2969 86.2678C66.8486 85.8515 66.2471 85.6407 65.637 85.6861L65.8 87.88ZM65.8 40.12L65.637 42.3139C66.2471 42.3592 66.8486 42.1485 67.2969 41.7322C67.7453 41.3159 68 40.7318 68 40.12H65.8ZM64 42.1467C64.5513 42.1467 65.0974 42.167 65.6377 42.207L65.9624 37.819C65.3141 37.771 64.6597 37.7467 64 37.7467V42.1467ZM42.1467 64C42.1467 51.9307 51.9307 42.1467 64 42.1467V37.7467C49.5007 37.7467 37.7467 49.5007 37.7467 64H42.1467ZM64 85.8533C51.9307 85.8533 42.1467 76.0693 42.1467 64H37.7467C37.7467 78.4993 49.5007 90.2533 64 90.2533V85.8533ZM65.6377 85.793C65.0974 85.833 64.5513 85.8533 64 85.8533V90.2533C64.6597 90.2533 65.3141 90.2289 65.9624 90.181L65.6377 85.793ZM68 87.987V87.88H63.6V87.987H68ZM64 90.1467C64.66 90.1467 65.3146 90.1222 65.9631 90.074L65.637 85.6861C65.097 85.7262 64.5511 85.7467 64 85.7467V90.1467ZM37.8533 64C37.8533 78.4404 49.5596 90.1467 64 90.1467V85.7467C51.9896 85.7467 42.2533 76.0103 42.2533 64H37.8533ZM64 37.8533C49.5596 37.8533 37.8533 49.5596 37.8533 64H42.2533C42.2533 51.9896 51.9896 42.2533 64 42.2533V37.8533ZM65.9631 37.926C65.3146 37.8778 64.66 37.8533 64 37.8533V42.2533C64.5511 42.2533 65.097 42.2738 65.637 42.3139L65.9631 37.926ZM68 40.12V40.013H63.6V40.12H68Z" fill="#222222"/>
<path fill-rule="evenodd" clip-rule="evenodd" d="M65 50.3268C64.6697 50.303 64.3363 50.2909 64 50.2909C56.4287 50.2909 50.2909 56.4287 50.2909 64C50.2909 71.5713 56.4287 77.709 64 77.709C64.3363 77.709 64.6697 77.6969 65 77.6731V77.5662C64.6698 77.5902 64.3363 77.6024 64 77.6024C56.4876 77.6024 50.3976 71.5124 50.3976 64C50.3976 56.4876 56.4876 50.3976 64 50.3976C64.3363 50.3976 64.6698 50.4098 65 50.4338V50.3268Z" fill="#222222"/>
<path d="M65 50.3268H67.2C67.2 49.1732 66.3088 48.2155 65.1582 48.1325L65 50.3268ZM65 77.6731L65.1582 79.8674C66.3088 79.7845 67.2 78.8268 67.2 77.6731H65ZM65 77.5662H67.2C67.2 76.955 66.9457 76.3714 66.4982 75.9551C66.0506 75.5389 65.4501 75.3277 64.8405 75.3719L65 77.5662ZM65 50.4338L64.8405 52.628C65.4501 52.6723 66.0506 52.461 66.4982 52.0448C66.9457 51.6286 67.2 51.0449 67.2 50.4338H65ZM64 52.4909C64.2834 52.4909 64.5642 52.5011 64.8418 52.5211L65.1582 48.1325C64.7753 48.1049 64.3891 48.0909 64 48.0909V52.4909ZM52.4909 64C52.4909 57.6437 57.6437 52.4909 64 52.4909V48.0909C55.2136 48.0909 48.0909 55.2136 48.0909 64H52.4909ZM64 75.509C57.6437 75.509 52.4909 70.3562 52.4909 64H48.0909C48.0909 72.7863 55.2136 79.909 64 79.909V75.509ZM64.8418 75.4788C64.5642 75.4988 64.2834 75.509 64 75.509V79.909C64.3891 79.909 64.7753 79.895 65.1582 79.8674L64.8418 75.4788ZM67.2 77.6731V77.5662H62.8V77.6731H67.2ZM64 79.8024C64.3895 79.8024 64.7762 79.7882 65.1594 79.7604L64.8405 75.3719C64.5633 75.3921 64.283 75.4024 64 75.4024V79.8024ZM48.1976 64C48.1976 72.7274 55.2725 79.8024 64 79.8024V75.4024C57.7026 75.4024 52.5976 70.2973 52.5976 64H48.1976ZM64 48.1976C55.2725 48.1976 48.1976 55.2725 48.1976 64H52.5976C52.5976 57.7026 57.7026 52.5976 64 52.5976V48.1976ZM65.1594 48.2395C64.7762 48.2117 64.3895 48.1976 64 48.1976V52.5976C64.283 52.5976 64.5633 52.6078 64.8405 52.628L65.1594 48.2395ZM67.2 50.4338V50.3268H62.8V50.4338H67.2Z" fill="#222222"/>
</svg>
