<svg width="128" height="128" viewBox="0 0 128 128" fill="none" xmlns="http://www.w3.org/2000/svg">
<g id="mercury-128">
<g id="mercury-64">
<g id="Base">
<rect id="Rectangle Rounded" width="128" height="128" rx="32" fill="#51ADFF"/>
</g>
<g id="Icon">
<path id="Union" fill-rule="evenodd" clip-rule="evenodd" d="M29.2556 54.3237L70.4849 18.7162C71.9389 17.4605 74.1546 18.7774 73.7465 20.6547L70.4311 35.9056C70.0552 37.6347 71.9449 38.9643 73.4454 38.0264L98.7673 22.2003C100.512 21.1097 102.568 23.0476 101.583 24.854L87.1038 51.3992C86.2974 52.8777 87.5678 54.6301 89.2238 54.3235L109.779 50.5169C111.629 50.1743 112.886 52.3442 111.667 53.7784L74.7351 97.2533C74.6708 97.329 74.6022 97.3986 74.5299 97.4622C68.7822 104.393 60.1058 108.807 50.3984 108.807C33.0923 108.807 19.0629 94.7774 19.0629 77.4712C19.0629 68.4224 22.8984 60.2693 29.0324 54.5492C29.0996 54.4696 29.174 54.3942 29.2556 54.3237Z" fill="white"/>
<circle id="Ellipse" cx="49.2793" cy="78.5902" r="19.0252" stroke="#222222" stroke-width="4"/>
</g>
</g>
</g>
</svg>
