<svg width="128" height="128" viewBox="0 0 128 128" fill="none" xmlns="http://www.w3.org/2000/svg">
<g clip-path="url(#clip0_23452_76515)">
<g clip-path="url(#clip1_23452_76515)">
<rect width="128" height="128" rx="32" fill="#00CCAE"/>
</g>
<path fill-rule="evenodd" clip-rule="evenodd" d="M86.2612 65.1111C91.071 59.7904 94.0001 52.7373 94.0001 45C94.0001 28.4315 80.5686 15 64.0001 15C47.4315 15 34.0001 28.4315 34.0001 45C34.0001 52.7372 36.9291 59.7903 41.7388 65.1109C43.7191 68.2112 43.3972 69.9881 43.1322 70.6613C42.6943 71.7738 41.1468 73.2585 38.0508 73.801C35.077 74.3221 31.7246 73.7177 29.1801 71.9145C26.8179 70.2405 24.6904 67.214 24.4965 61.8031C24.3878 58.7675 21.8388 56.3948 18.8032 56.5035C15.7676 56.6123 13.3949 59.1613 13.5036 62.1969C13.8098 70.7439 17.4322 77.0713 22.82 80.8894C28.0255 84.5783 34.4231 85.6043 39.9494 84.6359C41.8197 84.3081 43.7257 83.7196 45.5146 82.8464C40.6784 88.2197 33.0216 91.0154 25.0043 87.8782C22.1756 86.7713 18.9851 88.1671 17.8782 90.9958C16.7713 93.8245 18.1672 97.015 20.9959 98.1218C35.31 103.723 48.5429 97.7882 55.8292 87.5522C55.7366 87.9605 55.6347 88.3616 55.5235 88.7554C53.7593 95.0034 49.5247 99.9618 42.0135 102.871C39.181 103.968 37.7742 107.154 38.8714 109.987C39.9686 112.819 43.1542 114.226 45.9867 113.129C54.4565 109.848 60.5133 104.347 64 97.2663C67.4867 104.347 73.5435 109.848 82.0133 113.129C84.8458 114.226 88.0315 112.819 89.1286 109.987C90.2258 107.154 88.819 103.968 85.9865 102.871C78.4753 99.9618 74.2407 95.0034 72.4765 88.7554C72.3653 88.3616 72.2634 87.9604 72.1708 87.552C79.457 97.7881 92.69 103.723 107.004 98.1218C109.833 97.015 111.229 93.8245 110.122 90.9958C109.015 88.1671 105.825 86.7713 102.996 87.8782C94.9785 91.0154 87.3217 88.2196 82.4855 82.8464C84.2744 83.7196 86.1804 84.3081 88.0507 84.6359C93.577 85.6043 99.9746 84.5783 105.18 80.8894C110.568 77.0713 114.19 70.7439 114.496 62.1969C114.605 59.1613 112.233 56.6123 109.197 56.5035C106.161 56.3948 103.612 58.7675 103.504 61.8031C103.31 67.214 101.182 70.2405 98.82 71.9145C96.2755 73.7177 92.9231 74.3221 89.9493 73.801C86.8533 73.2585 85.3058 71.7738 84.8679 70.6613C84.6029 69.9881 84.281 68.2112 86.2612 65.1111Z" fill="white"/>
<path d="M80 62C81.3807 62 82.5364 60.857 82.1353 59.5358C81.7733 58.343 81.1499 57.2462 80.3033 56.3431C78.8968 54.8429 76.9891 54 75 54C73.0109 54 71.1032 54.8429 69.6967 56.3431C68.8501 57.2462 68.2267 58.343 67.8647 59.5358C67.4636 60.857 68.6193 62 70 62L75 62H80Z" fill="#222222"/>
<path d="M58 62C59.3807 62 60.5364 60.857 60.1353 59.5358C59.7733 58.343 59.1499 57.2462 58.3033 56.3431C56.8968 54.8429 54.9891 54 53 54C51.0109 54 49.1032 54.8429 47.6967 56.3431C46.8501 57.2462 46.2267 58.343 45.8647 59.5358C45.4636 60.857 46.6193 62 48 62L53 62H58Z" fill="#222222"/>
</g>
<defs>
<clipPath id="clip0_23452_76515">
<rect width="128" height="128" fill="white"/>
</clipPath>
<clipPath id="clip1_23452_76515">
<rect width="128" height="128" fill="white"/>
</clipPath>
</defs>
</svg>
