<svg width="128" height="128" viewBox="0 0 128 128" fill="none" xmlns="http://www.w3.org/2000/svg">
<g clip-path="url(#clip0_24654_29985)">
<g clip-path="url(#clip1_24654_29985)">
<rect width="128" height="128" rx="32" fill="#3DBC5D"/>
</g>
<path d="M106 34C106 27.3726 100.627 22 94 22H76.6569C75.596 22 74.5786 22.4214 73.8284 23.1716L70.1716 26.8284C69.4214 27.5786 68.404 28 67.3431 28H60.6569C59.596 28 58.5786 27.5786 57.8284 26.8284L54.1716 23.1716C53.4214 22.4214 52.404 22 51.3431 22H34C27.3726 22 22 27.3726 22 34V51.3431C22 52.404 22.4214 53.4214 23.1716 54.1716L26.8284 57.8284C27.5786 58.5786 28 59.596 28 60.6569V67.3431C28 68.404 27.5786 69.4214 26.8284 70.1716L23.1716 73.8284C22.4214 74.5786 22 75.596 22 76.6569V94C22 100.627 27.3726 106 34 106H51.3431C52.404 106 53.4214 105.579 54.1716 104.828L57.8284 101.172C58.5786 100.421 59.596 100 60.6569 100H67.3431C68.404 100 69.4214 100.421 70.1716 101.172L73.8284 104.828C74.5786 105.579 75.596 106 76.6569 106H94C100.627 106 106 100.627 106 94V76.6569C106 75.596 105.579 74.5786 104.828 73.8284L101.172 70.1716C100.421 69.4214 100 68.404 100 67.3431V60.6569C100 59.596 100.421 58.5786 101.172 57.8284L104.828 54.1716C105.579 53.4214 106 52.404 106 51.3431V34Z" fill="white"/>
<path d="M36 81L42 75V53L36 47V36H47L53 42H75L81 36H92V47L86 53V75L92 81V92H81L75 86H53L47 92H36V81Z" stroke="#222222" stroke-width="4.4" stroke-linecap="round" stroke-linejoin="round"/>
</g>
<defs>
<clipPath id="clip0_24654_29985">
<rect width="128" height="128" fill="white"/>
</clipPath>
<clipPath id="clip1_24654_29985">
<rect width="128" height="128" fill="white"/>
</clipPath>
</defs>
</svg>
