<svg width="128" height="128" viewBox="0 0 128 128" fill="none" xmlns="http://www.w3.org/2000/svg">
<rect width="128" height="128" rx="32" fill="#51ADFF"/>
<path d="M58.1982 20.9502C61.8439 19.0964 66.1561 19.0964 69.8018 20.9502L99.0018 35.7985C103.296 37.982 106 42.3911 106 47.2081V80.7919C106 85.6089 103.296 90.0181 99.0018 92.2015L69.8018 107.05C66.1561 108.904 61.8439 108.904 58.1982 107.05L28.9982 92.2015C24.7044 90.018 22 85.6089 22 80.7919V47.2081C22 42.3911 24.7044 37.9819 28.9982 35.7985L58.1982 20.9502Z" fill="white"/>
<path d="M36.2677 48.0005L58.2767 59.005C61.8803 60.8068 66.1218 60.8068 69.7254 59.005L91.7344 48.0005" stroke="#222222" stroke-width="4.4" stroke-linecap="round" stroke-linejoin="round"/>
<path d="M64 89.5996L64 61" stroke="#222222" stroke-width="4.4" stroke-linecap="round" stroke-linejoin="round"/>
</svg>
