<svg width="128" height="128" viewBox="0 0 128 128" fill="none" xmlns="http://www.w3.org/2000/svg">
<rect width="128" height="128" rx="32" fill="#00CCAE"/>
<path fill-rule="evenodd" clip-rule="evenodd" d="M64 20C61.7909 20 60 21.7909 60 24V76C60 87.0457 51.0457 96 40 96V96C37.7909 96 36 97.7909 36 100C36 102.209 37.7909 104 40 104H88C90.2091 104 92 102.209 92 100C92 97.7909 90.2091 96 88 96V96C76.9543 96 68 87.0457 68 76V24C68 21.7909 66.2091 20 64 20Z" fill="white"/>
<path d="M36 44.0001L92 30.0001" stroke="white" stroke-width="8" stroke-linecap="round" stroke-linejoin="round"/>
<path d="M74.371 64.2475C73.4725 61.5179 74.34 58.6057 75.5453 55.9939L88.3028 28.3485C89.7477 25.2172 94.2523 25.2172 95.6972 28.3485L108.455 55.9939C109.66 58.6057 110.528 61.5179 109.629 64.2475C107.381 71.0767 99.6905 74 92 74C84.3095 74 76.619 71.0767 74.371 64.2475Z" fill="white"/>
<path d="M18.371 78.2475C17.4725 75.5179 18.34 72.6057 19.5453 69.9939L32.3028 42.3485C33.7477 39.2172 38.2523 39.2172 39.6972 42.3485L52.4547 69.9939C53.66 72.6057 54.5275 75.5179 53.629 78.2475C51.381 85.0767 43.6905 88 36 88C28.3095 88 20.619 85.0767 18.371 78.2475Z" fill="white"/>
<path d="M102 61C102 61 99 65.0002 92 65.0002C85 65.0002 82 61 82 61" stroke="#222222" stroke-width="4.4" stroke-linecap="round" stroke-linejoin="round"/>
<path d="M46 75C46 75 43 79.0002 36 79.0002C29 79.0002 26 75 26 75" stroke="#222222" stroke-width="4.4" stroke-linecap="round" stroke-linejoin="round"/>
</svg>
