<svg width="128" height="128" viewBox="0 0 128 128" fill="none" xmlns="http://www.w3.org/2000/svg">
<g clip-path="url(#clip0_8898_104267)">
<g clip-path="url(#clip1_8898_104267)">
<g clip-path="url(#clip2_8898_104267)">
<rect width="128" height="128" rx="32" fill="#FE4C4C"/>
</g>
<path fill-rule="evenodd" clip-rule="evenodd" d="M30.063 91.5566C38.7765 99.025 50.2766 101.115 60.4854 98.1962C62.1807 97.7116 63.7241 96.9539 65.0814 95.9846C78.6023 102.636 95.4111 99.5984 105.67 87.6291C117.825 73.4473 116.182 52.097 102.001 39.9418L97.9496 36.4695C89.2361 29.0011 77.7359 26.9114 67.5272 29.8299C65.8319 30.3146 64.2885 31.0722 62.9312 32.0415C49.4102 25.3902 32.6014 28.4277 22.3425 40.397C10.1873 54.5788 11.8301 75.9291 26.0118 88.0844L30.063 91.5566Z" fill="white"/>
<path d="M47.8634 62.8693L67.7443 79.9093C75.6361 86.6734 87.5169 85.7592 94.2809 77.8675C101.045 69.9757 100.131 58.0949 92.2391 51.3308L88.1879 47.8586C83.4595 43.8058 77.221 42.6595 71.6502 44.2521" stroke="#222222" stroke-width="4.4" stroke-linecap="round" stroke-linejoin="round"/>
<path d="M80.149 65.1568L60.2681 48.1168C52.3764 41.3527 40.4955 42.2669 33.7315 50.1587C26.9675 58.0504 27.8817 69.9313 35.7734 76.6953L39.8246 80.1676C44.553 84.2203 50.7914 85.3666 56.3622 83.774" stroke="#222222" stroke-width="4.4" stroke-linecap="round" stroke-linejoin="round"/>
</g>
</g>
<defs>
<clipPath id="clip0_8898_104267">
<rect width="128" height="128" fill="white"/>
</clipPath>
<clipPath id="clip1_8898_104267">
<rect width="128" height="128" fill="white"/>
</clipPath>
<clipPath id="clip2_8898_104267">
<rect width="128" height="128" fill="white"/>
</clipPath>
</defs>
</svg>
