<svg width="128" height="128" viewBox="0 0 128 128" fill="none" xmlns="http://www.w3.org/2000/svg">
<g clip-path="url(#clip0_20055_68127)">
<g clip-path="url(#clip1_20055_68127)">
<rect width="128" height="128" rx="32" fill="#B750D1"/>
</g>
<path fill-rule="evenodd" clip-rule="evenodd" d="M112.19 76.9437C110.478 69.5187 107.671 62.663 104 56.6588V26.359C104 21.3499 98.2248 18.5461 94.2888 21.6444L78.0081 34.4602C73.5616 32.8586 68.8625 32 64.0057 32C59.1463 32 54.4444 32.8596 49.9953 34.4629L33.7112 21.6444C29.7752 18.5461 24 21.3499 24 26.359V56.6704C20.3322 62.6718 17.527 69.5234 15.8157 76.9435C15.2562 79.3695 16.416 81.8379 18.5586 83.1059L41.655 96.7736C42.8226 97.4645 43.6953 98.5444 44.2979 99.7599C47.8945 107.014 55.3749 112 64.02 112C72.6727 112 80.1588 107.005 83.7516 99.7406C84.3541 98.5225 85.2276 97.4401 86.3971 96.748L109.447 83.1059C111.59 81.8379 112.75 79.3696 112.19 76.9437Z" fill="white"/>
<path d="M58 100C58 97.7909 59.7909 96 62 96H66C68.2091 96 70 97.7909 70 100V102C70 105.314 67.3137 108 64 108V108C60.6863 108 58 105.314 58 102V100Z" fill="#222222"/>
<path d="M90 66.4075C90 66.4075 78 63.3472 74 74" stroke="#222222" stroke-width="4.4" stroke-linecap="round" stroke-linejoin="round"/>
<path d="M38 66.4075C38 66.4075 50 63.3472 54 74" stroke="#222222" stroke-width="4.4" stroke-linecap="round" stroke-linejoin="round"/>
</g>
<defs>
<clipPath id="clip0_20055_68127">
<rect width="128" height="128" fill="white"/>
</clipPath>
<clipPath id="clip1_20055_68127">
<rect width="128" height="128" fill="white"/>
</clipPath>
</defs>
</svg>
